# AST/ASF file generated using VICON BodyLanguage
# -----------------------------------------------
:version 1.10
:name VICON
:units
  mass 1.0
  length 0.45
  angle deg
:documentation
   .ast/.asf automatically generated from VICON data using
   VICON BodyBuilder and BodyLanguage model FoxedUp or BRILLIANT.MOD
:root
   order TX TY TZ RX RY RZ
   axis XYZ
   position 0 0 0  
   orientation 0 0 0 
:bonedata
  begin
     id 1 
     name lhipjoint
     direction 0.693937 -0.600361 0.397515 
     length 2.37164 
     axis 0 0 0  XYZ
  end
  begin
     id 2 
     name lfemur
     direction 0.34202 -0.939693 0  
     length 6.18497  
     axis 0 0 20  XYZ
    dof rx ry rz
    limits (-160.0 20.0)
           (-70.0 70.0)
           (-60.0 70.0)
  end
  begin
     id 3 
     name ltibia
     direction 0.34202 -0.939693 0   
     length 6.91601   
     axis 0 0 20   XYZ
    dof rx
    limits (-10.0 170.0)
  end
  begin
     id 4 
     name lfoot
     direction 0.0978718 -0.2689 0.958182   
     length 1.81453   
     axis -90 7.62852e-016 20   XYZ
    dof rx rz
    limits (-45.0 90.0)
           (-70.0 20.0)
  end
  begin
     id 5 
     name ltoes
     direction 1.53569e-011 -4.21951e-011 1   
     length 0.912052   
     axis -90 7.62852e-016 20   XYZ
    dof rx
    limits (-90.0 20.0)
  end
  begin
     id 6 
     name rhipjoint
     direction -0.643996 -0.637876 0.422354   
     length 2.23216  
     axis 0 0 0  XYZ 
  end
  begin
     id 7 
     name rfemur
     direction -0.34202 -0.939693 0   
     length 6.15404   
     axis 0 0 -20   XYZ
    dof rx ry rz
    limits (-160.0 20.0)
           (-70.0 70.0)
           (-70.0 60.0)
  end
  begin
     id 8 
     name rtibia
     direction -0.34202 -0.939693 0   
     length 6.86744   
     axis 0 0 -20   XYZ
    dof rx
    limits (-10.0 170.0)
 end
 begin
     id 9 
     name rfoot
     direction -0.118701 -0.326127 0.937844   
     length 1.9243  
     axis -90 -7.62852e-016 -20   XYZ
    dof rx rz
    limits (-45.0 90.0)
           (-20.0 70.0)
  end
  begin
     id 10 
     name rtoes
     direction -1.5356e-011 -4.2181e-011 1   
     length 0.958865   
     axis -90 -7.62852e-016 -20   XYZ
    dof rx
    limits (-90.0 20.0)
  end
  begin
     id 11 
     name lowerback
     direction 0.0310826 0.968686 -0.246334   
     length 2.00021   
     axis 0 0 0   XYZ
    dof rx ry rz
    limits (-20.0 45.0)
           (-30.0 30.0)
           (-30.0 30.0)
  end
  begin
     id 12 
     name upperback
     direction -0.0152834 0.999474 -0.0286152   
     length 2.03728   
     axis 0 0 0   XYZ
    dof rx ry rz
    limits (-20.0 45.0)
           (-30.0 30.0)
           (-30.0 30.0)
  end
  begin
     id 13 
     name thorax
     direction -0.0323701 0.996236 0.0804149   
     length 2.16   
     axis 0 0 0   XYZ
    dof rx ry rz
    limits (-20.0 45.0)
           (-30.0 30.0)
           (-30.0 30.0)
  end
  begin
     id 14 
     name lowerneck
     direction 0.0307935 0.982251 0.185027   
     length 1.43558   
     axis 0 0 0   XYZ
    dof rx ry rz
    limits (-20.0 45.0)
           (-30.0 30.0)
           (-30.0 30.0)
  end
  begin
     id 15 
     name upperneck
     direction -0.0927153 0.994775 0.0427454   
     length 1.44603   
     axis 0 0 0   XYZ
    dof rx ry rz
    limits (-20.0 45.0)
           (-30.0 30.0)
           (-30.0 30.0)
  end
  begin
     id 16
     name head
     direction -0.0341265 0.999406 -0.00472033  
     length 1.45931  
     axis 0 0 0   XYZ
    dof rx ry rz
    limits (-20.0 45.0)
           (-30.0 30.0)
           (-30.0 30.0)
  end
  begin
     id 17 
     name lclavicle
     direction 0.820755 0.555306 -0.134151  
     length 2.66075  
     axis 0 0 0   XYZ
    dof ry rz
    limits (-20.0 10.0)
           (0.0 20.0)
  end
  begin
     id 18 
     name lhumerus
     direction 1 -4.48971e-011 5.24853e-027   
     length 5.0546   
     axis -180 -30 -90   XYZ
    dof rx ry rz
    limits (-60.0 90.0)
           (-90.0 90.0)
           (-90.0 90.0)
  end
  begin
     id 19
     name lradius
     direction 1 -4.48971e-011 2.76575e-028   
     length 3.39013   
     axis -180 -30 -90   XYZ
    dof rx
    limits (-10.0 170.0)
  end
  begin
     id 20
     name lwrist
     direction 1 -4.48939e-011 -2.27826e-027   
     length 1.69507   
     axis 2.17013e-015 90 90   XYZ
    dof ry
    limits (-180.0 0.0)
 end
  begin
     id 21 
     name lhand
     direction 1 -4.49009e-011 -4.55652e-027   
     length 0.572425   
     axis 2.90745e-015 90 90   XYZ
    dof rx rz
    limits (-90.0 90.0)
           (-45.0 45.0)
  end
  begin
     id 22 
     name lfingers
     direction 1 -4.48955e-011 -9.11303e-027   
     length 0.461504   
     axis 5.81489e-015 90 90   XYZ
    dof rx
    limits (0.0 90.0)
  end
  begin
     id 23
     name lthumb
     direction 0.707107 -6.34929e-011 0.707107   
     length 0.66263   
     axis -90 45 2.85299e-015   XYZ
    dof rx rz
    limits (-45.0 45.0)
           (-45.0 45.0)
  end
  begin
     id 24 
     name rclavicle
     direction -0.754477 0.632921 -0.173712   
     length 2.73081  
     axis 0 0 0   XYZ 
    dof ry rz
    limits (-10.0 20.0)
           (-20.0 0.0)
  end
  begin
     id 25 
     name rhumerus
     direction -1 -4.48969e-011 5.1496e-027  
     length 5.0701   
     axis -180 30 90   XYZ
    dof rx ry rz
    limits (-90.0 60.0)
           (-90.0 90.0)
           (-90.0 90.0)
  end
  begin
     id 26 
     name rradius
     direction -1 -4.48967e-011 -7.15624e-028   
     length 3.14957   
     axis -180 30 90   XYZ
    dof rx
    limits (-10.0 170.0)
  end
  begin
     id 27 
     name rwrist
     direction -1 -4.48938e-011 -2.27826e-027   
     length 1.57479   
     axis 2.17013e-015 -90 -90   XYZ
    dof ry
    limits (-180.0 0.0)
  end
  begin
     id 28
     name rhand
     direction -1 -4.49008e-011 -4.55652e-027   
     length 0.718191   
     axis 2.90745e-015 -90 -90   XYZ
    dof rx rz
    limits (-90.0 90.0)
           (-45.0 45.0)
  end
  begin
     id 29
     name rfingers
     direction -1 -4.48953e-011 -9.11303e-027   
     length 0.579024   
     axis 5.81489e-015 -90 -90   XYZ
    dof rx
    limits (0.0 90.0)
  end
  begin
     id 30
     name rthumb
     direction -0.707107 -6.34937e-011 0.707107   
     length 0.831366   
     axis -90 -45 -2.85299e-015   XYZ
    dof rx rz
    limits (-45.0 45.0)
           (-45.0 45.0)
  end
:hierarchy
  begin
    root lhipjoint rhipjoint lowerback
    lhipjoint lfemur
    lfemur ltibia
    ltibia lfoot
    lfoot ltoes
    rhipjoint rfemur
    rfemur rtibia
    rtibia rfoot
    rfoot rtoes
    lowerback upperback
    upperback thorax
    thorax lowerneck lclavicle rclavicle
    lowerneck upperneck
    upperneck head
    lclavicle lhumerus
    lhumerus lradius
    lradius lwrist
    lwrist lhand lthumb
    lhand lfingers
    rclavicle rhumerus
    rhumerus rradius
    rradius rwrist
    rwrist rhand rthumb
    rhand rfingers
  end

#!OML:ASF H:\Male1\Project 1\Capture day 1\Session 1\Male1.ASF
:FULLY-SPECIFIED
:DEGREES
18
root 9.41371 15.1792 -2.50671 -1.54589 -71.6071 0.442992
lowerback 1.69826 1.26049 0.0614371
upperback 4.18936 1.6376 -0.432081
thorax 3.36698 0.803507 -0.458934
lowerneck -8.48668 3.21484 9.38639
upperneck 24.9946 4.1465 -7.23458
head 9.61865 1.88211 -3.70737
rclavicle 4.39935e-014 -1.07344e-014
rhumerus -31.8707 -6.48474 -83.1501
rradius 31.6562
rwrist -14.7335
rhand -15.7427 -1.47208
rfingers 7.12502
rthumb 10.4484 -31.1924
lclavicle 4.39935e-014 -1.07344e-014
lhumerus -32.7199 8.00783 82.9784
lradius 30.4749
lwrist 0.307605
lhand -18.685 11.793
lfingers 7.12502
lthumb 7.60923 41.6361
rfemur -6.44073 14.8032 27.8222
rtibia 32.4194
rfoot -43.1951 -30.9564
rtoes -0.809888
lfemur -4.09596 -18.9271 -25.3488
ltibia 31.6415
lfoot -30.416 27.0944
ltoes -4.46268
19
root 9.40162 15.1767 -2.52466 -1.51943 -71.6618 0.408159
lowerback 1.74499 1.26325 0.201961
upperback 4.21247 1.63891 -0.390274
thorax 3.36746 0.807688 -0.495317
lowerneck -8.48976 3.33347 9.35474
upperneck 25.3615 4.29079 -7.11989
head 9.76222 1.95491 -3.654
rclavicle 7.24322e-015 -3.77691e-015
rhumerus -31.8871 -6.53877 -83.0802
rradius 31.6248
rwrist -14.7661
rhand -15.6682 -1.27062
rfingers 7.12502
rthumb 10.5202 -30.9874
lclavicle 7.24322e-015 -3.77691e-015
lhumerus -32.7833 7.95199 83.0166
lradius 30.5308
lwrist 0.300055
lhand -18.785 11.8629
lfingers 7.12502
lthumb 7.51268 41.7095
rfemur -6.40571 14.8071 27.9356
rtibia 32.4111
rfoot -43.0994 -31.0075
rtoes -0.951131
lfemur -4.12056 -18.7372 -25.2197
ltibia 31.7128
lfoot -30.275 27.0403
ltoes -5.03959
20
root 9.38738 15.174 -2.542 -1.67473 -71.6718 0.574698
lowerback 1.74222 1.2531 0.295056
upperback 4.24601 1.62391 -0.373316
thorax 3.40587 0.802698 -0.529639
lowerneck -8.49893 3.4747 9.34678
upperneck 25.7249 4.45562 -6.98051
head 9.90879 2.04209 -3.5928
rclavicle 2.66744e-014 -5.2181e-015
rhumerus -31.8995 -6.5724 -83.0297
rradius 31.606
rwrist -14.8131
rhand -15.6331 -1.11226
rfingers 7.12502
rthumb 10.5541 -30.8273
lclavicle 2.66744e-014 -5.2181e-015
lhumerus -32.8351 7.88643 83.0482
lradius 30.5794
lwrist 0.269142
lhand -18.9052 11.8857
lfingers 7.12502
lthumb 7.3967 41.7364
rfemur -6.39207 14.6853 27.9571
rtibia 32.4336
rfoot -42.9407 -31.0212
rtoes -1.21259
lfemur -4.14301 -18.5163 -25.1532
ltibia 31.7703
lfoot -30.0684 26.9816
ltoes -5.75579
21
root 9.37318 15.1715 -2.56004 -1.88903 -71.6898 0.810406
lowerback 1.73467 1.24484 0.367076
upperback 4.2832 1.61157 -0.363741
thorax 3.45039 0.798507 -0.559586
lowerneck -8.51259 3.63305 9.3616
upperneck 26.0703 4.6388 -6.83778
head 10.0529 2.14046 -3.53101
rclavicle -3.31225e-014 1.31198e-014
rhumerus -31.8946 -6.56381 -82.9993
rradius 31.5874
rwrist -14.876
rhand -15.6371 -1.01441
rfingers 7.12502
rthumb 10.5503 -30.7296
lclavicle -3.31225e-014 1.31198e-014
lhumerus -32.8723 7.82577 83.0751
lradius 30.6436
lwrist 0.271909
lhand -18.9691 11.845
lfingers 7.12502
lthumb 7.335 41.6978
rfemur -6.41262 14.5464 27.9505
rtibia 32.4944
rfoot -42.7618 -31.0204
rtoes -1.49922
lfemur -4.16704 -18.2632 -25.0985
ltibia 31.8087
lfoot -29.8477 26.929
ltoes -6.44943
22
root 9.35851 15.1687 -2.57805 -2.27108 -71.7052 1.21528
lowerback 1.72369 1.23797 0.396845
upperback 4.33093 1.60141 -0.370161
thorax 3.50707 0.79427 -0.582127
lowerneck -8.52893 3.79581 9.39191
upperneck 26.3895 4.82769 -6.70642
head 10.1899 2.24201 -3.47393
rclavicle 3.52439e-014 -2.5842e-015
rhumerus -31.8867 -6.54306 -82.9712
rradius 31.5789
rwrist -14.9236
rhand -15.6499 -0.927155
rfingers 7.12502
rthumb 10.5379 -30.643
lclavicle 3.52439e-014 -2.5842e-015
lhumerus -32.9017 7.75386 83.1048
lradius 30.7455
lwrist 0.350187
lhand -18.9505 11.7494
lfingers 7.12502
lthumb 7.35291 41.6016
rfemur -6.44286 14.3672 27.8789
rtibia 32.5851
rfoot -42.5728 -30.9744
rtoes -1.76454
lfemur -4.17634 -17.9905 -25.1018
ltibia 31.8427
lfoot -29.6536 26.8672
ltoes -7.0628
23
root 9.34369 15.1651 -2.59555 -2.77527 -71.7173 1.73472
lowerback 1.72258 1.23305 0.413128
upperback 4.38614 1.594 -0.389208
thorax 3.566 0.791137 -0.610222
lowerneck -8.53919 3.95088 9.42874
upperneck 26.6754 5.00929 -6.59304
head 10.314 2.33927 -3.42397
rclavicle 6.09193e-014 -3.81729e-015
rhumerus -31.9256 -6.53767 -82.9351
rradius 31.6561
rwrist -14.9052
rhand -15.6538 -0.87601
rfingers 7.12502
rthumb 10.5341 -30.592
lclavicle 6.09193e-014 -3.81729e-015
lhumerus -32.949 7.662 83.1416
lradius 30.9124
lwrist 0.517146
lhand -18.8414 11.6439
lfingers 7.12502
lthumb 7.45827 41.4924
rfemur -6.46834 14.1451 27.7592
rtibia 32.6932
rfoot -42.3809 -30.874
rtoes -1.97812
lfemur -4.17493 -17.7048 -25.1495
ltibia 31.8961
lfoot -29.5131 26.7729
ltoes -7.54628
24
root 9.33173 15.1611 -2.61442 -3.07502 -71.7568 2.03332
lowerback 1.78991 1.23795 0.51094
upperback 4.42772 1.59888 -0.389752
thorax 3.5742 0.796465 -0.666424
lowerneck -8.53178 4.0844 9.45938
upperneck 26.9253 5.16678 -6.4962
head 10.4196 2.42346 -3.38074
rclavicle -1.82168e-014 4.22417e-015
rhumerus -32.0574 -6.51909 -82.9084
rradius 31.9139
rwrist -14.7569
rhand -15.6856 -0.986591
rfingers 7.12502
rthumb 10.5034 -30.7042
lclavicle -1.82168e-014 4.22417e-015
lhumerus -33.043 7.53305 83.1945
lradius 31.1641
lwrist 0.762065
lhand -18.684 11.6038
lfingers 7.12502
lthumb 7.61012 41.4469
rfemur -6.50212 13.9918 27.7271
rtibia 32.7997
rfoot -42.2346 -30.7649
rtoes -2.00243
lfemur -4.21519 -17.3937 -25.1037
ltibia 32.0032
lfoot -29.4193 26.6232
ltoes -7.89177
25
root 9.32219 15.1563 -2.634 -3.2239 -71.812 2.16249
lowerback 1.92238 1.24787 0.687394
upperback 4.45846 1.61015 -0.379529
thorax 3.53658 0.807309 -0.75707
lowerneck -8.50992 4.19441 9.48493
upperneck 27.1356 5.29704 -6.41555
head 10.5054 2.49331 -3.34481
rclavicle 5.11871e-015 -1.19271e-015
rhumerus -32.3029 -6.43379 -82.9162
rradius 32.3906
rwrist -14.408
rhand -15.7758 -1.19589
rfingers 7.12502
rthumb 10.4165 -30.9179
lclavicle 5.11871e-015 -1.19271e-015
lhumerus -33.198 7.34863 83.2674
lradius 31.4999
lwrist 1.05606
lhand -18.5388 11.6081
lfingers 7.12502
lthumb 7.75034 41.446
rfemur -6.5277 13.8736 27.7589
rtibia 32.8917
rfoot -42.1067 -30.639
rtoes -1.88391
lfemur -4.30676 -17.0712 -24.9892
ltibia 32.1976
lfoot -29.3596 26.4207
ltoes -8.18256
26
root 9.31583 15.151 -2.65463 -3.07526 -71.8829 1.98488
lowerback 2.1244 1.26032 0.988864
upperback 4.46964 1.62522 -0.349279
thorax 3.44287 0.823588 -0.898882
lowerneck -8.47087 4.28048 9.50531
upperneck 27.2979 5.39832 -6.34569
head 10.5675 2.54872 -3.31444
rclavicle -7.1811e-015 -1.14301e-015
rhumerus -32.6673 -6.17757 -83.0049
rradius 33.16
rwrist -13.7734
rhand -15.907 -1.67022
rfingers 7.12502
rthumb 10.2899 -31.3985
lclavicle -7.1811e-015 -1.14301e-015
lhumerus -33.4124 7.10659 83.359
lradius 31.8973
lwrist 1.35342
lhand -18.4584 11.5765
lfingers 7.12502
lthumb 7.82787 41.4116
rfemur -6.5628 13.7915 27.8971
rtibia 32.96
rfoot -41.9618 -30.523
rtoes -1.71118
lfemur -4.49294 -16.7577 -24.7544
ltibia 32.513
lfoot -29.3186 26.1708
ltoes -8.43962
27
root 9.31213 15.1452 -2.67556 -2.66315 -71.9504 1.5436
lowerback 2.37861 1.26926 1.41724
upperback 4.46373 1.63781 -0.30964
thorax 3.30606 0.842064 -1.10358
lowerneck -8.42236 4.34675 9.52332
upperneck 27.4133 5.47453 -6.28269
head 10.6078 2.59219 -3.28823
rclavicle -3.58434e-014 1.21259e-014
rhumerus -33.1342 -5.64537 -83.2251
rradius 34.2161
rwrist -12.8275
rhand -16.089 -2.34212
rfingers 7.12502
rthumb 10.1143 -32.079
lclavicle -3.58434e-014 1.21259e-014
lhumerus -33.6746 6.80242 83.464
lradius 32.3454
lwrist 1.64262
lhand -18.4439 11.5259
lfingers 7.12502
lthumb 7.84193 41.3605
rfemur -6.61932 13.6801 28.1103
rtibia 33.013
rfoot -41.753 -30.4095
rtoes -1.61901
lfemur -4.78796 -16.4789 -24.4251
ltibia 32.9695
lfoot -29.2733 25.8971
ltoes -8.71004
28
root 9.30993 15.1389 -2.69577 -2.14941 -71.9778 1.01426
lowerback 2.65352 1.2594 1.9311
upperback 4.4515 1.62896 -0.277309
thorax 3.15387 0.851919 -1.36441
lowerneck -8.38567 4.40531 9.5313
upperneck 27.4875 5.54396 -6.2296
head 10.6343 2.63073 -3.2636
rclavicle -1.52319e-014 4.77083e-015
rhumerus -33.6684 -4.76656 -83.6022
rradius 35.5374
rwrist -11.6045
rhand -16.2536 -3.10883
rfingers 7.12502
rthumb 9.95545 -32.8534
lclavicle -1.52319e-014 4.77083e-015
lhumerus -33.9669 6.46945 83.5655
lradius 32.8415
lwrist 1.92941
lhand -18.4348 11.4915
lfingers 7.12502
lthumb 7.85067 41.3258
rfemur -6.70395 13.4419 28.3189
rtibia 33.0587
rfoot -41.4447 -30.2845
rtoes -1.75777
lfemur -5.20527 -16.2378 -24.069
ltibia 33.5902
lfoot -29.189 25.6131
ltoes -9.04048
29
root 9.31073 15.1323 -2.71603 -1.5726 -71.9689 0.438496
lowerback 2.97151 1.22538 2.5049
upperback 4.43567 1.59271 -0.244523
thorax 2.97488 0.848653 -1.65939
lowerneck -8.37322 4.46774 9.51661
upperneck 27.5216 5.62848 -6.19999
head 10.6516 2.67144 -3.24053
rclavicle -5.55603e-014 1.13307e-014
rhumerus -34.2313 -3.524 -84.1204
rradius 37.0814
rwrist -10.2849
rhand -16.3531 -3.74991
rfingers 7.12502
rthumb 9.85952 -33.4991
lclavicle -5.55603e-014 1.13307e-014
lhumerus -34.2721 6.16891 83.6555
lradius 33.3745
lwrist 2.20543
lhand -18.4077 11.4445
lfingers 7.12502
lthumb 7.87686 41.2778
rfemur -6.83585 13.0885 28.5137
rtibia 33.1151
rfoot -41.0552 -30.1621
rtoes -2.17132
lfemur -5.769 -15.9915 -23.6866
ltibia 34.3879
lfoot -29.0268 25.3072
ltoes -9.37075
30
root 9.3147 15.1256 -2.7368 -1.074 -71.9042 -0.0550839
lowerback 3.34305 1.15759 3.07923
upperback 4.43395 1.51649 -0.205274
thorax 2.77811 0.823773 -1.94867
lowerneck -8.38296 4.54101 9.47191
upperneck 27.5005 5.7464 -6.21831
head 10.6556 2.71945 -3.22412
rclavicle 1.92821e-014 7.95139e-016
rhumerus -34.7931 -1.99035 -84.7223
rradius 38.8078
rwrist -9.10587
rhand -16.3558 -4.04735
rfingers 7.12502
rthumb 9.85691 -33.7966
lclavicle 1.92821e-014 7.95139e-016
lhumerus -34.5732 5.94361 83.7445
lradius 33.9359
lwrist 2.46762
lhand -18.3876 11.3641
lfingers 7.12502
lthumb 7.89622 41.1966
rfemur -6.99626 12.6164 28.6607
rtibia 33.1872
rfoot -40.625 -30.0331
rtoes -2.80898
lfemur -6.48206 -15.6864 -23.3121
ltibia 35.3893
lfoot -28.7417 24.9468
ltoes -9.7303
